<?xml version="1.0" standalone="no"?><!DOCTYPE svg PUBLIC "-//W3C//DTD SVG 1.1//EN" "http://www.w3.org/Graphics/SVG/1.1/DTD/svg11.dtd"><svg t="1492390513638" class="icon" style="" viewBox="0 0 1024 1024" version="1.1" xmlns="http://www.w3.org/2000/svg" p-id="2565" xmlns:xlink="http://www.w3.org/1999/xlink" width="16" height="16"><defs><style type="text/css"></style></defs><path d="M72.531943 951.529455c5.456269 5.456269 12.619412 8.170077 19.782555 8.170077 7.163143 0 14.326287-2.742461 19.811208-8.198729l399.913179-400.39004 399.913179 400.39004c5.456269 5.483898 12.619412 8.198729 19.811208 8.198729 7.163143 0 14.326287-2.742461 19.782555-8.170077 10.94119-10.912537 10.94119-28.624944 0.027629-39.566134l-399.521253-399.969461L951.545828 112.051005c10.912537-10.94119 10.912537-28.653597-0.027629-39.566134-10.968819-10.94119-28.653597-10.94119-39.566134 0.027629l-399.940808 400.389016L112.098078 72.513524c-10.94119-10.94119-28.653597-10.94119-39.566134-0.027629-10.94119 10.912537-10.94119 28.624944-0.027629 39.566134l399.465994 399.941831L72.503291 911.963321C61.590753 922.875858 61.590753 940.615894 72.531943 951.529455z" p-id="2566" fill="#1296db"></path></svg>