<?xml version="1.0" standalone="no"?><!DOCTYPE svg PUBLIC "-//W3C//DTD SVG 1.1//EN" "http://www.w3.org/Graphics/SVG/1.1/DTD/svg11.dtd"><svg t="1491722352030" class="icon" style="" viewBox="0 0 1024 1024" version="1.1" xmlns="http://www.w3.org/2000/svg" p-id="5259" xmlns:xlink="http://www.w3.org/1999/xlink" width="128" height="128"><defs><style type="text/css"></style></defs><path d="M733.779617 419.163615c0 10.172687-8.246825 18.419512-18.419512 18.419512l-406.252561 0c-10.172687 0-18.419512-8.246825-18.419512-18.419512l0 0c0-10.172687 8.246825-18.419512 18.419512-18.419512l406.252561 0C725.533816 400.744103 733.779617 408.991951 733.779617 419.163615L733.779617 419.163615zM733.779617 570.612932c0 10.172687-8.246825 18.419512-18.419512 18.419512l-406.252561 0c-10.172687 0-18.419512-8.246825-18.419512-18.419512l0 0c0-10.172687 8.246825-18.419512 18.419512-18.419512l406.252561 0C725.533816 552.193421 733.779617 560.440246 733.779617 570.612932L733.779617 570.612932zM733.779617 722.06225c0 10.172687-8.246825 18.419512-18.419512 18.419512l-406.252561 0c-10.172687 0-18.419512-8.246825-18.419512-18.419512l0 0c0-10.172687 8.246825-18.419512 18.419512-18.419512l406.252561 0C725.533816 703.642738 733.779617 711.889563 733.779617 722.06225L733.779617 722.06225zM888.476909 289.323455c-1.38658-62.582337-26.412556-121.208573-70.821999-165.619038-45.595454-45.595454-106.184391-70.75753-170.646542-70.883397l-10.031471-0.5137L223.917304 52.30732c-48.51597 0-87.985914 39.470967-87.985914 87.985914l0 745.118362c0 48.51597 39.470967 87.985914 87.985914 87.985914l576.635089 0c48.514947 0 87.985914-39.469943 87.985914-87.985914L888.538307 289.323455 888.476909 289.323455zM850.046644 268.737604 684.901397 268.737604c-10.157337 0-18.419512-8.263198-18.419512-18.419512L666.481885 90.632183C761.660618 99.862405 838.019727 174.390819 850.046644 268.737604zM800.552393 936.559509 223.917304 936.559509c-28.203342 0-51.14689-22.944572-51.14689-51.14689L172.770414 140.293233c0-28.203342 22.944572-51.14689 51.14689-51.14689l405.725558 0 0 161.172773c0 30.469965 24.789593 55.258535 55.258535 55.258535l166.79891 0 0 579.834968C851.700307 913.614937 828.755736 936.559509 800.552393 936.559509z" fill="#1296db" p-id="5260"></path></svg>