<?xml version="1.0" standalone="no"?><!DOCTYPE svg PUBLIC "-//W3C//DTD SVG 1.1//EN" "http://www.w3.org/Graphics/SVG/1.1/DTD/svg11.dtd"><svg t="1491704399943" class="icon" style="" viewBox="0 0 1024 1024" version="1.1" xmlns="http://www.w3.org/2000/svg" p-id="6398" xmlns:xlink="http://www.w3.org/1999/xlink" width="64" height="64"><defs><style type="text/css"></style></defs><path d="M934.480574 193.877658c-1.581185-0.243259-16.298373-2.310963-42.448747-2.310963-49.016748 0-135.495427 7.297779-246.664925 45.611118 114.088609-64.706972 230.9747-70.545195 232.677515-70.545195 9.852001-0.364889 17.636299-8.757335 17.27141-18.609336-0.364889-9.973631-8.878964-17.757928-18.609336-17.27141-7.419408 0.243259-145.590688 6.93289-273.423447 89.64105 96.69557-90.249198 238.02922-117.615869 239.975294-117.980758 9.730372-1.824445 16.176743-11.189928 14.352298-20.920299-1.824445-9.730372-11.189928-16.176743-20.920299-14.352298-10.33852 1.946074-236.934553 45.489488-324.507899 212.730253C424.122574 112.993942 197.89143 69.328899 187.67454 67.504454c-9.730372-1.824445-19.095855 4.621927-20.920299 14.352298-1.824445 9.730372 4.621927 19.095855 14.352298 20.920299 1.824445 0.364889 143.522984 27.60993 240.218553 118.102387C293.370703 138.04965 155.077794 131.360019 147.536756 131.11676c-9.852001-0.608148-18.244447 7.297779-18.609336 17.27141-0.364889 9.973631 7.297779 18.244447 17.27141 18.609336 1.581185 0.12163 118.588906 5.716593 232.920774 70.666825-111.291127-38.313339-198.013066-45.732747-247.029814-45.732747-26.272004 0-40.989191 2.067704-42.570377 2.310963-13.987409 2.067704-23.961041 14.595558-22.988003 28.704597l44.75971 596.59342c1.094667 13.62252 12.162965 24.447559 25.907115 24.934078 221.609217 7.905927 357.104644 108.128756 358.44257 109.101794 4.743556 3.648889 10.46015 5.473334 16.298373 5.473334 4.135408 0 8.149186-0.973037 11.919705-2.797482 2.310963-1.216296 4.500297-2.675852 6.324742-4.378667 16.784891-11.919705 147.901651-100.344459 356.618126-107.763867 13.74415-0.486519 24.812448-11.189928 25.907115-24.934078L957.468577 222.582254C958.441614 208.473215 948.467983 195.945362 934.480574 193.877658L934.480574 193.877658zM484.937397 883.274498c-57.044305-31.988597-168.213802-81.491864-321.710417-91.465495l-40.867561-545.873857c3.040741-0.12163 6.203112-0.12163 9.730372-0.12163 62.03112 0 189.012472 12.527854 352.847607 94.871125L484.937397 883.274498 484.937397 883.274498zM860.773007 791.444115c-153.496615 9.852001-264.666112 59.476897-321.710417 91.465495L539.06259 340.319753c163.956764-82.343271 290.816487-94.871125 352.847607-94.871125 3.52726 0 6.689631 0 9.730372 0.12163L860.773007 791.444115 860.773007 791.444115zM860.773007 791.444115" p-id="6399" fill="#1196db"></path></svg>